<svg width="1728" height="930" viewBox="0 0 1728 930" fill="none" xmlns="http://www.w3.org/2000/svg">
<g clip-path="url(#clip0_232_1230)">
<rect width="1728" height="930" fill="#212121"/>
<path d="M129.553 642.222C129.553 642.222 142.113 602.981 125.331 596.618C106.694 589.553 110.816 645.376 110.816 645.376C110.816 645.376 70.2178 601.199 61.4642 621.589C53.383 640.412 93.6614 664.038 93.6614 664.038C93.6614 664.038 34.9479 669.431 40.3513 692.294C45.9006 715.775 101.975 685.329 101.975 685.329C101.975 685.329 82.0452 732.193 101.975 741.841C124.133 752.567 129.553 685.329 129.553 685.329C129.553 685.329 176.436 729.559 189.197 708.196C201.755 687.175 144.596 664.038 144.596 664.038C144.596 664.038 188.121 650.644 182.599 632.102C176.602 611.962 129.553 642.222 129.553 642.222Z" stroke="#C8FF32" stroke-width="3.09152"/>
<g opacity="0.5">
<path d="M1861.61 699.604C1832.48 660.559 1753.57 728.159 1724.47 689.096C1706.62 665.132 1738.08 631.343 1714.09 613.531C1691.2 596.541 1669.96 626.544 1641.95 621.725C1564.98 608.484 1626.17 433.603 1540.64 448.738C1416.41 470.719 1588.23 649.776 1502.15 676.71C1455.17 691.412 1406.33 610.926 1378.13 651.178C1335.71 711.712 1493.21 728.707 1488.09 800.616C1484.66 848.707 1408.23 862.378 1426.55 907.176C1447.88 959.36 1519.09 887.013 1570.45 910.295C1662.05 951.813 1563.72 1145.35 1663.88 1150.16C1764.26 1154.98 1682.74 958.848 1774.59 918.975C1819.14 899.634 1882.2 962.428 1901.18 917.718C1921.29 870.316 1815.28 865.698 1803.78 815.229C1792.34 765.066 1892.44 740.946 1861.61 699.604Z" stroke="white" stroke-width="48.1274" stroke-dasharray="2.01 2.01"/>
</g>
<path d="M1607.46 -142L1454.05 -0.262854L1607.46 -80.9371L1460.28 55.0057L1703.07 -91.6343L1354 198.526L1784 -68.9029L1454.05 190.503L1703.07 65.7029L1500.74 239.086L1688.4 131.669L1567.44 326" stroke="#AA80FF" stroke-width="38.644"/>
<path d="M242.345 649L37.5574 779.229L242.345 705.105L45.8676 830.01L369.967 695.276L-96 961.876L478 716.162L37.5574 954.505L369.967 839.838L99.8842 999.143L350.378 900.448L188.922 1079" stroke="#C8FF32" stroke-width="48.4661"/>
<path d="M69.563 125.21C33.2201 128.16 41.5774 38.3199 89.6827 28.8364C126.213 21.6349 178.926 72.4817 161.173 88.9191C142.529 106.182 98.4316 52.2005 103.58 9.13657C109.886 -43.6065 171.008 -79.4596 192.582 -52.1175C222.072 -14.7414 135.967 27.2103 80.4745 -19.6504C24.9825 -66.5112 64.1259 -153.658 93.5917 -140.437C124.019 -126.785 103.336 -46.3479 59.0672 -28.5712C19.766 -12.7893 -40.0189 -44.8056 -30.1204 -69.677C-16.7577 -103.252 54.8906 -36.0126 52.946 5.83815C50.8504 50.9366 -32.0389 77.4578 -40.5236 46.206C-47.8567 19.1958 17.1414 10.2028 52.0137 36.3857C86.4177 62.2169 93.825 123.24 69.563 125.21Z" stroke="#AA80FF" stroke-width="3.09152"/>
<rect x="664" y="384" width="160" height="160" rx="80" fill="#B18CE4"/>
<circle cx="744" cy="464" r="64" fill="#854AD4"/>
<circle cx="744" cy="464" r="48" fill="#5D27A5"/>
<circle cx="744" cy="464" r="32" fill="#381863"/>
<circle cx="744" cy="464" r="16" fill="#1A0B2E"/>
<rect x="744" y="384" width="160" height="160" rx="80" fill="#C4B3E5"/>
<circle cx="824" cy="464" r="64" fill="#9677D0"/>
<circle cx="824" cy="464" r="48" fill="#693FB6"/>
<circle cx="824" cy="464" r="32" fill="#462A79"/>
<circle cx="824" cy="464" r="16" fill="#2D1B4E"/>
<rect x="824" y="384" width="160" height="160" rx="80" fill="#8F7FF1"/>
<circle cx="904" cy="464" r="64" fill="#4F35E8"/>
<circle cx="904" cy="464" r="48" fill="#2C15B7"/>
<circle cx="904" cy="464" r="32" fill="#1A0C6E"/>
<circle cx="904" cy="464" r="16" fill="#0D0637"/>
<rect x="904" y="384" width="160" height="160" rx="80" fill="#E170FF"/>
<circle cx="984" cy="464" r="64" fill="#D01FFF"/>
<circle cx="984" cy="464" r="48" fill="#A100CC"/>
<circle cx="984" cy="464" r="32" fill="#61007A"/>
<circle cx="984" cy="464" r="16" fill="#30003D"/>
</g>
<defs>
<clipPath id="clip0_232_1230">
<rect width="1728" height="930" fill="white"/>
</clipPath>
</defs>
</svg>
